<?xml version="1.0" standalone="no"?>
<!DOCTYPE svg PUBLIC "-//W3C//DTD SVG 20010904//EN"
 "http://www.w3.org/TR/2001/REC-SVG-20010904/DTD/svg10.dtd">
<svg version="1.0" xmlns="http://www.w3.org/2000/svg"
 width="256.000000pt" height="256.000000pt" viewBox="0 0 256.000000 256.000000"
 preserveAspectRatio="xMidYMid meet">
<metadata>
Created by potrace 1.16, written by Peter Selinger 2001-2019
</metadata>
<g transform="translate(0.000000,256.000000) scale(0.100000,-0.100000)"
fill="#000000" stroke="none">
<path d="M2075 2492 c-89 -58 -209 -155 -310 -253 -85 -82 -95 -88 -175 -114
-73 -24 -107 -28 -235 -32 -135 -5 -157 -3 -215 17 -175 58 -323 153 -393 251
-46 67 -70 74 -135 40 -47 -25 -137 -117 -153 -156 -35 -91 -49 -173 -49 -301
0 -150 9 -185 70 -276 22 -33 40 -68 40 -77 0 -9 -12 -41 -26 -71 -30 -64 -43
-175 -25 -208 18 -34 28 -26 34 27 6 54 31 108 83 184 19 27 34 53 34 58 0 5
-24 36 -54 68 -30 33 -62 74 -72 93 -23 45 -33 158 -24 284 6 85 13 114 36
160 34 67 95 139 136 160 30 15 31 15 65 -18 42 -41 116 -170 144 -252 12 -34
24 -101 28 -151 l6 -90 19 28 c16 23 18 40 13 105 -3 42 -16 109 -29 147 l-23
70 77 -52 c43 -29 94 -55 113 -59 19 -3 38 -10 41 -16 3 -5 -12 -28 -34 -52
-43 -47 -77 -104 -68 -114 3 -3 27 13 53 36 109 95 186 119 416 129 l139 6
-26 -38 c-39 -57 -61 -152 -33 -143 6 3 23 32 37 66 37 93 215 276 407 421 81
61 153 111 159 111 21 0 83 -81 103 -134 41 -110 46 -320 10 -388 -6 -11 -22
-62 -36 -112 -13 -50 -39 -118 -58 -152 -19 -34 -35 -65 -35 -68 0 -20 47 24
79 73 l37 58 36 -61 c170 -286 219 -489 172 -713 -15 -73 -64 -186 -106 -246
-16 -22 -17 -27 -4 -27 21 0 112 105 152 176 37 66 64 178 64 264 0 36 -16 91
-61 207 -62 158 -128 276 -210 375 l-39 46 38 114 c36 109 37 117 36 248 -1
128 -3 139 -34 213 -18 43 -47 99 -64 125 -42 64 -71 66 -151 14z"/>
<path d="M2103 2441 c-50 -36 -127 -129 -159 -193 -27 -53 -58 -173 -49 -188
13 -21 23 -8 35 43 13 55 34 97 49 97 5 0 4 -13 -2 -30 -6 -16 -8 -32 -5 -36
4 -3 44 4 89 15 143 36 145 30 26 -54 -59 -42 -107 -82 -107 -90 0 -11 12 -15
43 -16 23 -1 34 -3 25 -6 -33 -8 -19 -30 25 -37 l42 -7 -40 -15 c-22 -7 -42
-14 -44 -14 -2 0 -1 -9 2 -20 3 -13 0 -20 -9 -20 -23 0 -16 -20 21 -56 39 -37
47 -32 14 10 l-20 26 50 0 c62 0 70 22 14 36 l-38 10 73 19 c78 21 91 38 40
50 l-33 8 48 9 c29 6 47 16 47 24 0 16 -28 19 -135 15 l-70 -3 112 79 c62 43
112 84 113 91 0 25 -156 10 -243 -24 -18 -6 -17 -4 2 34 12 23 21 44 21 47 0
11 -32 4 -58 -12 l-27 -18 29 50 c16 28 60 82 99 122 76 78 85 101 20 54z"/>
<path d="M650 2220 c0 -5 3 -10 8 -10 4 0 12 -8 19 -19 11 -17 9 -18 -25 -10
-47 11 -112 11 -112 1 0 -5 30 -30 66 -56 36 -26 64 -50 61 -53 -3 -3 -39 -8
-79 -11 -55 -5 -73 -11 -73 -22 0 -10 13 -17 39 -20 l40 -5 -47 -35 c-62 -47
-62 -63 1 -55 26 3 58 8 72 11 23 5 24 5 7 -14 -21 -23 -22 -42 -2 -42 8 0 12
-6 9 -14 -6 -15 24 -26 76 -26 l34 0 -41 -42 c-35 -37 -73 -95 -73 -113 0 -16
18 0 35 31 10 20 41 56 68 80 28 25 47 48 43 51 -4 4 -28 10 -54 13 l-47 6 32
20 c46 27 44 48 -4 39 -37 -6 -37 -6 -15 10 39 28 27 38 -43 33 -36 -2 -65 -3
-65 -1 0 1 14 9 30 18 31 16 39 40 18 48 -7 3 8 6 35 6 31 1 47 5 47 14 0 14
-57 72 -100 101 -20 14 -21 17 -5 12 11 -2 41 -8 68 -12 52 -7 61 4 30 38 -17
19 -16 19 10 13 29 -8 38 8 11 19 -25 10 -74 7 -74 -4z"/>
<path d="M1730 1330 c-41 -5 -208 -14 -370 -20 -347 -14 -344 -13 -337 -93 2
-29 9 -69 15 -91 10 -37 10 -38 -14 -33 -13 2 -27 0 -30 -4 -3 -5 -26 -9 -52
-9 -26 0 -61 -4 -77 -9 l-30 -8 3 74 c5 101 -2 121 -43 139 -75 31 -362 8
-408 -33 -30 -27 -47 -76 -47 -136 0 -110 50 -205 116 -221 39 -10 41 0 6 29
-17 14 -43 51 -58 81 -35 72 -31 151 10 192 26 26 30 27 144 26 189 0 229 -21
248 -126 5 -33 3 -38 -25 -52 -44 -23 -39 -36 12 -31 148 17 257 25 323 25 87
0 91 14 7 25 -72 9 -78 13 -58 35 10 11 19 44 22 80 4 41 11 64 22 69 9 5 106
14 216 20 110 7 264 16 343 21 208 13 225 3 244 -148 14 -114 5 -227 -19 -254
-38 -42 -101 -65 -228 -82 -71 -10 -80 -13 -83 -33 -3 -21 1 -23 42 -23 111 0
254 55 305 116 39 49 49 92 57 269 7 150 7 151 -18 179 -21 25 -31 29 -94 31
-38 2 -103 0 -144 -5z"/>
<path d="M783 769 c-39 -11 -51 -44 -31 -86 9 -19 34 -38 82 -61 66 -32 71
-33 100 -19 17 8 50 32 74 52 36 31 43 43 40 69 -2 21 -11 34 -28 43 -29 15
-189 16 -237 2z"/>
<path d="M538 659 c-3 -27 -9 -54 -14 -59 -5 -5 -28 -5 -54 1 -181 41 -470 80
-470 64 0 -13 43 -23 245 -55 72 -11 159 -25 195 -31 l65 -10 -3 -83 -3 -83
-107 -22 c-197 -41 -392 -105 -392 -128 0 -10 6 -13 18 -8 51 19 263 77 369
100 l122 27 55 -27 c49 -24 66 -27 160 -27 l105 0 -10 -26 c-5 -14 -7 -32 -5
-39 8 -20 94 -57 221 -95 99 -30 123 -33 235 -33 114 0 134 3 228 33 148 48
242 90 362 162 117 70 122 71 250 44 150 -32 296 -76 349 -105 58 -31 82 -30
41 2 -59 45 -220 99 -402 134 l-87 17 77 55 c42 31 104 77 137 103 54 42 64
46 103 42 27 -3 42 0 42 7 0 6 -16 11 -35 11 -32 0 -34 2 -23 20 18 29 3 35
-29 12 -26 -18 -45 -20 -173 -21 -80 0 -221 -5 -315 -10 -238 -15 -216 -18
-255 34 -19 25 -38 45 -43 45 -12 0 1 -51 19 -71 8 -8 14 -18 14 -21 0 -3 -38
-9 -85 -13 -48 -4 -85 -11 -85 -17 0 -7 29 -9 90 -4 l90 7 0 -56 0 -56 -47 5
c-126 14 -203 16 -203 7 0 -5 12 -12 28 -15 27 -6 164 -25 192 -26 8 -1 -21
-19 -65 -42 -72 -37 -87 -41 -155 -42 -62 0 -96 7 -201 42 -69 23 -135 42
-146 42 -13 0 -37 -19 -60 -46 l-39 -47 -105 0 c-70 0 -115 5 -139 15 l-35 15
68 8 c98 11 86 29 -13 21 l-80 -7 0 76 c0 75 1 77 23 71 12 -3 46 -9 75 -12
72 -9 68 11 -5 27 -67 14 -82 24 -65 41 15 15 16 53 2 79 -17 31 -27 22 -32
-32z m1657 -64 c-31 -26 -51 -40 -174 -119 -70 -45 -77 -48 -125 -43 -74 8
-289 37 -302 41 -6 2 -12 29 -13 60 l-2 56 38 1 c56 1 597 26 603 27 3 1 -8
-10 -25 -23z m-508 -165 c43 -6 107 -15 142 -22 l65 -11 -65 -33 c-35 -18 -71
-33 -79 -34 -8 0 -44 -14 -80 -31 -196 -94 -356 -137 -455 -124 -64 8 -286 61
-318 76 -36 16 -42 67 -12 95 12 11 27 29 32 39 12 20 19 19 268 -52 61 -18
177 -12 226 11 81 39 147 75 154 85 8 14 23 14 122 1z"/>
</g>
</svg>
