<?xml version="1.0" standalone="no"?>
<!DOCTYPE svg PUBLIC "-//W3C//DTD SVG 20010904//EN"
 "http://www.w3.org/TR/2001/REC-SVG-20010904/DTD/svg10.dtd">
<svg version="1.0" xmlns="http://www.w3.org/2000/svg"
 width="260.000000pt" height="260.000000pt" viewBox="0 0 260.000000 260.000000"
 preserveAspectRatio="xMidYMid meet">
<metadata>
Created by potrace 1.11, written by Peter Selinger 2001-2013
</metadata>
<g transform="translate(0.000000,260.000000) scale(0.100000,-0.100000)"
fill="#000000" stroke="none">
<path d="M1633 2278 l-63 -10 0 -83 0 -83 78 -43 c68 -39 77 -48 80 -75 l3
-31 -73 -11 c-40 -6 -195 -28 -345 -48 l-272 -38 -3 -55 -3 -56 -75 -10 -75
-10 -3 -77 c-3 -72 -1 -78 17 -78 10 0 291 38 623 85 331 47 604 85 606 85 1
0 2 36 2 81 l0 81 -52 -7 c-29 -3 -65 -8 -80 -11 l-28 -6 0 90 0 90 65 7 c36
4 67 10 69 14 6 10 -369 211 -391 210 -10 -1 -46 -6 -80 -11z"/>
<path d="M548 2127 l-78 -10 0 -88 0 -87 -75 -7 -75 -7 0 -88 0 -88 73 -39 72
-39 3 -199 c2 -135 -1 -201 -8 -205 -6 -4 -76 -15 -155 -26 l-145 -18 -2 -170
-3 -171 -40 -7 c-22 -3 -57 -8 -77 -9 l-38 -3 0 -171 0 -171 192 -104 c105
-58 195 -106 200 -108 4 -2 8 73 8 166 0 194 -11 174 103 187 l57 7 0 168 c0
152 2 169 18 174 9 2 79 13 155 22 l137 17 0 252 0 252 -47 -8 c-27 -4 -60 -8
-75 -8 l-28 -1 0 84 c0 95 -5 90 93 101 l57 6 0 85 c0 46 1 84 3 85 1 0 35 6
75 12 l73 12 -113 61 c-62 34 -151 82 -198 106 l-85 44 -77 -9z"/>
<path d="M2140 1954 c0 -44 1 -45 28 -40 15 2 45 8 67 11 l39 7 -59 34 c-33
18 -63 34 -67 34 -5 0 -8 -21 -8 -46z"/>
<path d="M1880 1530 c-25 -4 -84 -13 -132 -20 l-88 -12 0 -164 c0 -150 2 -164
18 -164 9 0 76 9 147 20 72 11 133 20 138 20 4 0 7 74 7 165 0 187 9 172 -90
155z"/>
<path d="M1170 1430 c-63 -10 -121 -19 -128 -19 -10 -1 -11 -35 -6 -163 4 -90
8 -164 9 -166 1 -1 64 7 139 18 75 11 141 20 147 20 5 0 9 68 9 165 l0 165
-27 -1 c-16 -1 -80 -9 -143 -19z"/>
<path d="M2136 1408 c-3 -13 -6 -58 -6 -100 l0 -77 33 5 c17 3 86 13 152 22
l120 17 -143 78 c-78 42 -144 77 -146 77 -2 0 -6 -10 -10 -22z"/>
<path d="M2203 1066 l-72 -9 -3 -86 -3 -86 -40 -5 c-36 -5 -40 -8 -43 -36 -3
-31 -1 -33 192 -138 107 -58 197 -106 200 -106 3 0 6 75 6 166 l0 166 -32 -5
c-18 -3 -54 -9 -80 -13 l-47 -6 -3 83 -3 84 -72 -9z"/>
<path d="M2450 984 l0 -45 58 7 c31 3 61 9 65 11 8 5 -104 73 -118 73 -3 0 -5
-21 -5 -46z"/>
<path d="M1655 989 c-66 -11 -181 -27 -255 -37 l-135 -17 -5 -30 c-4 -23 -12
-31 -38 -39 -31 -8 -32 -11 -32 -59 0 -46 1 -49 23 -44 12 3 48 9 80 12 l57 7
0 -81 c0 -58 4 -81 13 -81 6 0 76 8 155 17 l142 18 0 86 0 87 48 6 c110 15
102 8 102 97 0 69 -2 79 -17 78 -10 -1 -72 -10 -138 -20z"/>
<path d="M783 868 l-63 -10 0 -63 0 -63 149 -81 c81 -45 151 -81 155 -81 3 0
6 37 6 81 l0 81 -47 -6 c-27 -4 -63 -10 -80 -13 l-33 -5 0 86 c0 63 -3 86 -12
85 -7 -1 -41 -6 -75 -11z"/>
<path d="M1228 590 c-59 -8 -109 -17 -112 -20 -2 -3 46 -33 107 -67 l112 -61
3 44 c2 25 2 61 0 82 l-3 37 -107 -15z"/>
</g>
</svg>
